              <svg
                xmlns="http://www.w3.org/2000/svg"
                viewBox="0 0 100 100"
                width="24px"
                height="24px"
                fill="currentColor"
              >
<path d="M0 0 C8.67470361 5.19192298 15.39245062 11.20590415 18.1015625 21.2578125 C19.22524227 31.90319983 18.13499694 39.75522841 11.5625 48.24609375 C6.57334083 53.76727226 -0.51048649 57.96952211 -7.8984375 59.2578125 C-9.80985051 59.33140701 -11.72149037 59.40245913 -13.63378906 59.44750977 C-21.52557029 59.66361508 -27.44271998 60.97765596 -34.7421875 64.17578125 C-40.0290505 65.98823305 -45.38132305 65.86504208 -50.8984375 65.2578125 C-51.8984375 64.2578125 -51.8984375 64.2578125 -52.3359375 61.9453125 C-52.1915625 61.0584375 -52.0471875 60.1715625 -51.8984375 59.2578125 C-49.92522697 57.8851443 -47.92300598 56.55353633 -45.8984375 55.2578125 C-44.40674282 52.96087464 -44.40674282 52.96087464 -43.8984375 50.2578125 C-44.88502395 47.88471105 -44.88502395 47.88471105 -46.6484375 45.7578125 C-52.50043185 37.99161439 -52.67930989 30.69747246 -51.8984375 21.2578125 C-50.27135952 14.525412 -46.16045875 8.69880916 -40.8984375 4.2578125 C-28.79340987 -2.9550278 -13.30176165 -6.53660452 0 0 Z M-41.8984375 13.2578125 C-47.38092134 20.07130398 -47.62223005 26.76330268 -46.8984375 35.2578125 C-45.55590851 39.84721867 -43.6257785 42.62534206 -40.0234375 45.7578125 C-37.8984375 48.2578125 -37.8984375 48.2578125 -37.921875 50.19921875 C-38.80665267 54.13720462 -40.13591234 57.24414868 -42.8984375 60.2578125 C-38.50012513 59.41006522 -34.53227397 58.55744429 -30.4609375 56.6328125 C-26.49001373 55.10017525 -23.75178542 55.15158483 -19.5703125 55.265625 C-10.21282851 55.23826394 -0.80100655 52.7427553 6.2109375 46.328125 C12.2541064 39.71060534 13.56286237 34.40069734 13.421875 25.48828125 C12.97829578 21.0146225 11.62299923 17.92615274 9.1015625 14.2578125 C8.5240625 13.3709375 7.9465625 12.4840625 7.3515625 11.5703125 C1.35159859 5.40368293 -6.02480304 2.07100397 -14.65820312 1.87719727 C-26.40347981 1.90932635 -33.70197693 4.69047136 -41.8984375 13.2578125 Z " fill="#FFFFFF" transform="translate(55.8984375,8.7421875)"/>
<path d="M0 0 C6.67794826 1.66948707 12.51974575 5.47470199 16.4375 11.1875 C19.64368656 16.9586358 19.6067464 22.53077149 19 29 C17.53381781 33.50742149 15.02794223 37.36646933 12 41 C12.5053125 41.30292969 13.010625 41.60585937 13.53125 41.91796875 C15.49479823 43.18414568 17.28557949 44.41018649 19 46 C19.4375 48.8125 19.4375 48.8125 19 51 C14.31586501 53.34206749 8.0766327 52.50548912 3 52 C0.4140625 50.91796875 0.4140625 50.91796875 -1.875 49.5625 C-6.20327457 47.00974498 -10.00229526 46.5735367 -14.9375 46.4375 C-25.28899978 46.10276203 -32.79918131 43.81739624 -40.44140625 36.68359375 C-42.86772051 34.06268787 -44 32.63656386 -44 29 C-41.75 28.6875 -41.75 28.6875 -39 29 C-38.1646875 30.0828125 -38.1646875 30.0828125 -37.3125 31.1875 C-31.70431682 38.00826333 -23.45459231 39.64554298 -15.04296875 40.75 C-12.52058544 40.95723046 -10.20379219 40.97069519 -7.6875 40.8125 C-3.27623557 41.03680158 -1.36145491 42.41542605 2.16796875 44.88671875 C4.52201725 46.31721731 6.30054664 46.42178959 9 46 C8.319375 45.2575 7.63875 44.515 6.9375 43.75 C5 41 5 41 4.9375 39 C6.45213628 36.14891995 8.69927326 34.24461145 11 32 C13.73972207 27.53735993 13.62987133 23.08742229 13 18 C10.25858338 12.06026398 4.80085497 7.90042749 -1 5 C-0.67 3.35 -0.34 1.7 0 0 Z " fill="#FFFFFF" transform="translate(77,42)"/>
<path d="M0 0 C11.22 0 22.44 0 34 0 C34 1.32 34 2.64 34 4 C22.78 4 11.56 4 0 4 C0 2.68 0 1.36 0 0 Z " fill="#FFFFFF" transform="translate(22,34)"/>
<path d="M0 0 C11.22 0 22.44 0 34 0 C34 1.32 34 2.64 34 4 C22.78 4 11.56 4 0 4 C0 2.68 0 1.36 0 0 Z " fill="#FFFFFF" transform="translate(22,24)"/>
<path d="M0 0 C7.92 0 15.84 0 24 0 C24 1.32 24 2.64 24 4 C16.08 4 8.16 4 0 4 C0 2.68 0 1.36 0 0 Z " fill="#FFFFFF" transform="translate(22,44)"/>
<path d="M0 0 C1.26650391 0.00966797 1.26650391 0.00966797 2.55859375 0.01953125 C3.43128906 0.03628906 4.30398437 0.05304688 5.203125 0.0703125 C6.53537109 0.08384766 6.53537109 0.08384766 7.89453125 0.09765625 C10.08100558 0.12116673 12.26692594 0.15402751 14.453125 0.1953125 C14.453125 1.5153125 14.453125 2.8353125 14.453125 4.1953125 C5.873125 4.1953125 -2.706875 4.1953125 -11.546875 4.1953125 C-7.51773231 1.50921737 -4.89448498 -0.06614169 0 0 Z " fill="#FFFFFF" transform="translate(63.546875,65.8046875)"/>
<path d="M0 0 C3.6875 -0.25 3.6875 -0.25 7 0 C7 1.32 7 2.64 7 4 C3.7 4 0.4 4 -3 4 C-2.01 2.68 -1.02 1.36 0 0 Z " fill="#FFFFFF" transform="translate(71,56)"/>
       </svg>